<?xml version="1.0" encoding="UTF-8"?>
<svg id="Layer_1" data-name="Layer 1" xmlns="http://www.w3.org/2000/svg" viewBox="0 0 545.71 906.5">
  <defs>
    <style>
      .cls-1 {
        fill: #40423f;
      }

      .cls-2 {
        fill: #696d69;
      }

      .cls-3 {
        fill: #723f3f;
      }

      .cls-4 {
        fill: #566790;
      }

      .cls-5 {
        opacity: .2;
      }

      .cls-6 {
        fill: #6b4a08;
      }

      .cls-6, .cls-7, .cls-8 {
        stroke: #000;
        stroke-miterlimit: 10;
        stroke-width: 0px;
      }

      .cls-9 {
        fill: #376b52;
      }

      .cls-10 {
        fill: #52896f;
      }

      .cls-11 {
        opacity: .1;
      }

      .cls-12 {
        fill: #6b6666;
      }

      .cls-13 {
        fill: #7db59d;
      }

      .cls-14 {
        fill: #2d2d2d;
      }

      .cls-15 {
        fill: #f87f76;
      }

      .cls-16 {
        fill: #508e72;
      }

      .cls-8 {
        fill: #54380b;
      }
    </style>
  </defs>
  <path class="cls-16" d="m220.71,412.55c32.08,45.01,28.35,73.2,46.77,76.53,17.65,3.2,39.54-19.36,46.52-41.45,9.49-30.03-9.2-57.28-22.27-76.33-13.22-19.27-27.83-40.57-52.68-42.55-23.42-1.87-50.21,13.88-53.02,32.25-2.29,14.98,12.98,21.1,34.68,51.54Z"/>
  <path class="cls-16" d="m405.88,426.81c1.73,18.85-.29,23.18,2.09,33.44.7,3.01,1.06,3.43.63,4.6-2.75,7.57-25.09,10.18-48.31,12.74-20.02,2.21-30.32,3.33-43.2,1.41-15.64-2.32-28.32-4.21-32.9-13.32-5.45-10.82,2.72-27.48,15.01-34.56,9.66-5.57,13.81-.58,42.65-3.51,11.85-1.2,17.71-2.71,26.44-3.59,6.99-.7,6.78-.11,11.28-.67,13.85-1.73,20.39-5.99,24.24-3.59,1.33.83,1.61,1.99,2.07,7.05Z"/>
  <path class="cls-13" d="m282.51,593.64c-7.14,12.78-17.25,30.89-36.1,44.22-30.37,21.49-71.21,21.92-99.36,12.52-80.08-26.73-91.8-143.89-93.15-159.65-7.3-85.32,36.46-152.95,69.86-180,7.95-6.43,23.35-18.57,44.47-19.13,25.52-.67,44.33,15.47,50.24,20.7,20.66,18.3,16.36,31.7,39,76.3,20.44,40.26,27.98,37.29,37.57,65.74,10.8,32.04,9.51,60.34,7.83,75.13-3.72,32.78-15.78,55.99-20.35,64.17Z"/>
  <circle class="cls-15" cx="182.13" cy="181.62" r="141.91"/>
  <path d="m244.71,175.19c0,8.61-6.98,15.59-15.59,15.59s-15.58-6.98-15.58-15.59c0-.93.08-1.85.25-2.73h30.67c.17.88.25,1.8.25,2.73Z"/>
  <path d="m150.71,175.19c0,8.61-6.98,15.59-15.59,15.59s-15.59-6.98-15.59-15.59c0-.93.08-1.85.25-2.73h30.68c.17.88.25,1.8.25,2.73Z"/>
  <path class="cls-12" d="m83.71,154.29c1.1-6.22,9.1-10.02,17.86-8.48l55.09,9.71c8.76,1.55,14.97,7.85,13.88,14.07-.55,3.11-2.82,5.62-6.05,7.15-3.23,1.53-7.42,2.09-11.8,1.32l-55.09-9.71c-8.76-1.55-14.99-7.84-13.89-14.07Z"/>
  <path class="cls-12" d="m193.71,169.59c1.1,6.22,9.1,10.02,17.86,8.48l55.09-9.71c8.76-1.55,14.97-7.85,13.88-14.07-.55-3.11-2.82-5.62-6.05-7.15-3.23-1.53-7.42-2.09-11.8-1.32l-55.09,9.71c-8.76,1.55-14.99,7.84-13.89,14.07Z"/>
  <path d="m238.01,231c1.57-.85,3.1-1.84,3.1-1.84.33-.22.68-.44,1.03-.68,0,0,.55-.38,1.07-.77,1.25-.95,8.77-11.51,7.92-12.7-.68-.96-4.98,6.85-14.09,10.45-2.23.88-3.97,1.21-5.23,1.42-24.95,4.28-52.49,3.8-52.49,3.8-13.27-.23-8.96-.67-29.54-1.65,0,0-7.66-.37-18-2.75-3.78-.87-5.42-1.45-7.24-2.48-7.41-4.17-10.55-11.59-11.35-10.73-.83.9,2.57,9.05,5.28,12.98,1.22,1.77,2.35,2.76,2.7,3.05.08.07,1.42,1.14,3.09,1.88,10.81,4.8,20.87,5.86,20.87,5.86,20.41,2.15,30.61,3.22,36,3.19,7.84-.04,18.2-.57,30.28-2.5,14.42-2.39,24.62-5.48,26.59-6.55Z"/>
  <g class="cls-5">
    <path d="m112.12,129.73c13.17-4.66,27.74.87,40.74,3.76,11.54,2.57,22.9,3.84,34.51.98,5.65-1.39,11.16-3.39,16.88-4.5,7.07-1.38,14.31-1.22,21.48-1.28,14.11-.12,28.22-.02,42.33.28.08,0,.08-.12,0-.12-14.11-.3-28.22-.4-42.33-.28-6.01.05-12.11-.12-18.08.7-6.36.87-12.44,3.01-18.63,4.65-14.2,3.76-27.61,1.49-41.64-1.83-11.37-2.69-23.81-6.55-35.3-2.48-.07.03-.04.14.03.12h0Z"/>
  </g>
  <g class="cls-5">
    <path d="m218.16,138.8c4.57-1.99,9.28-3.45,14.18-4.39.08-.01.04-.13-.03-.12-4.91.94-9.63,2.4-14.21,4.4-.07.03,0,.13.06.1h0Z"/>
  </g>
  <path class="cls-16" d="m343.39,130.19c-10.16,23.13-105.27,4.87-145.94,1.47-40.87-3.42-56.83-6.33-73.76-5.15-1.31.09-2.59.2-3.9.34,0,0-6.31.65-12.54,1.96-13.69,2.89-59.49,27.39-65.91,19.79-.49-.58-.12-.61-1.04-6-1.22-7.12-2.72-12.01-3.13-13.57-2.05-7.7-1.43-23.31.78-35.73,3.9-21.98,8.56-52.18,31.04-70.68C95.12,1.12,126.72,3.69,157.02,6.16c37.49,3.05,64,15.77,86.74,26.74,47.88,23.1,70.88,49.15,77.44,56.94,15.63,18.55,26.23,31.13,22.19,40.35Z"/>
  <path class="cls-10" d="m324.06,106.6c.01.55-.84,1.09-2.44,1.62-13.67-.74-29.91-1.02-47.32-.7-21.38.39-40.96,1.62-56.18,3.35-3.57-.63-5.57-1.38-5.59-2.21-.05-2.94,24.87-5.78,55.66-6.34,30.8-.57,55.81,1.35,55.86,4.29Z"/>
  <ellipse class="cls-9" cx="116.26" cy="7.29" rx="18.96" ry="7.26" transform="translate(-.19 4.23) rotate(-2.08)"/>
  <g>
    <path class="cls-3" d="m176.11,199.15c1.31.18,2.65.34,4.02.48,14.22,1.41,26.02-.2,26.35-3.6.12-1.24-1.29-2.54-3.83-3.77-3.67,3.16-13.65,5.89-26.55,6.88Z"/>
    <path class="cls-3" d="m205.14,194.17c-7.79-5.87-17.8-13.44-20.94-23.01-2.64-8.05-1.83-16.87-1.27-25.17.13-1.93-2.87-1.92-3,0-.64,9.53-1.47,19.76,2.44,28.75s13.57,16.23,21.26,22.02c1.54,1.16,3.04-1.44,1.51-2.59h0Z"/>
  </g>
  <path d="m114.11,196.13c8.45,3.11,17.2,3.77,26.04,2.09,1.89-.36,1.09-3.25-.8-2.89-8.32,1.58-16.5.83-24.44-2.09-1.81-.67-2.6,2.23-.8,2.89h0Z"/>
  <path d="m249.35,194.75c-7.95,2.92-16.12,3.67-24.44,2.09-1.89-.36-2.7,2.53-.8,2.89,8.84,1.67,17.59,1.02,26.04-2.09,1.8-.66,1.02-3.56-.8-2.89h0Z"/>
  <path class="cls-13" d="m292.55,768.95c-54.07,15.17-77.07,7.5-87.65-3.92-5.91-6.39-8.78-14.86-11.52-21.25-.86-2.01-1.7-3.81-2.62-5.28-1.99-4.33-3.72-8.78-5.14-13.32-.23,1.04-.48,2.07-.76,3.1-.74,2.7-1.77,5.43-3.41,7.65-.71.58-1.38,1.32-2.04,2.18-4.5,5.92-8.31,17.84-16.77,26.14-11.31,11.11-34.37,19.12-86.09,4.7-7.57-11.53-29.29-47.78-25.82-97.83,2.96-42.68,22.63-72.17,31.3-83.74,67.81.25,135.61.5,203.41.75,9.17,11.95,26.67,38.23,31.38,75.95,6.64,53.31-16.81,93.2-24.27,104.87Z"/>
  <g>
    <path class="cls-1" d="m544.81,424.06c-.72-.72-1.4-.41-4-.89-3.07-.57-2.92-1.14-4.96-1.3-2.86-.23-4.08.83-4.96,0-.66-.63-.23-1.49-.26-3.92-.03-2.39-.07-5.27-1.82-6.78-1.42-1.22-3.38-1.04-3.91-.99-2.19.2-4.16,1.6-5.22,3.34-2.2,3.59.11,7.62-1.83,8.87-.9.57-2.1.16-2.61,0-5.11-1.62-8.77.81-23.49.21-5.5-.23-11.39-.47-18.77-2.3-2.81-.7-3.53-1.05-6.26-1.56-4.69-.88-7.83-.82-15.65-.79,0,0-7.01.03-13.05,0-6.86-.03-11.29-.18-14.48-.26-18-.43-22.85.89-41.6.52-9.77-.19-7.28-.52-20.87-.91-7.17-.2-9.7-.16-31.83-.39-12.07-.12-10.92-.13-18.2-.2-15.1-.13-22.66-.19-22.89-.19,0,0-10.99.06-17.03-.33-1.73-.11-2.58-.16-4.29-.26-.66-.04-2.21-.12-4.07-.21-5.13-.23-5.51-.12-5.91.15-1.68,1.1-1.06,2.99-2.87,3.91-.35.18-.51.18-3.52.26-1.25.03-1.85-.01-4.05,0-1.71.01-2.06.04-2.54.13-1.07.21-1.5.51-2.74.98-.9.34-1.67.53-3.19.91-1.3.33-3.96,1.11-7.01,1.26-4.03.19-3.64-.33-7.93-.15-.89.04-3.15.15-6.16,0-2.26-.11-2.99-.28-3.62-.82-1.26-1.13-.6-2.57-1.63-4.4-1.06-1.87-3.03-2.6-4.44-3.13-4-1.49-5.04.57-8.73-.56-2.13-.65-1.87-1.35-7.78-4.87-2.2-1.31-3.31-1.97-3.83-1.87-3.71.68-1.71,11.33-7.57,14.87-1.72,1.04-4.19,1.21-9.13,1.56-4.53.32-6.01-.2-7.57,1.05-2.35,1.89-.79,4.6-2.6,7.82-2.07,3.67-5.62,2.89-14.15,6.71-7.79,3.48-7.81,5.47-12.46,6.34-6.41,1.19-11.77-1.57-14.09-2.61-10.91-4.9-20.53-1.35-46.96.52-39.8,2.82-47.85-3.11-54.26,4.69-1.61,1.97-3.1,4.78-2.08,34.96.71,21.12,1.12,31.73,3.65,34.44,14.41,15.42,76.88-21.54,91.3-30.26,12.19,5.53,18.97,4.71,22.96,2.08,3.98-2.62,3.29-5.79,8.71-13.08,5.92-7.97,15.31-15.7,19.43-13.51,1.26.67.91,1.67,2.64,4.68.83,1.43,3.96,6.88,9.91,9.39,4.35,1.83,10.38,2.19,15.1-.54,4.73-2.73,3.83-6.08,8.69-8.92,1.19-.7,2.98-1.52,12.93-1.89,7.24-.27,11.05,0,18.39,0,7.17.02,10.75.03,13.72-.26,10.42-1,11.8-3.35,23.26-5.02,5.76-.84,4.66-.14,16.05-1.17,9.59-.88,12.12-1.54,20.15-2.35,7.08-.72,7.34-.43,21.45-1.24,33.78-1.93,29.14-3.39,35.48-2.61,4.46.55,10.95,1.79,17.22-1.56,2.63-1.41,2.88-2.38,5.74-3.66.99-.44,1.97-.77,2.93-1.02.67-.62,1.21-1.01,1.3-1.08,2.17-1.55,4.38-1.95,5.51-2.14,4.4-.73,6.28.92,7.76.03-.23.24-.44.49-.63.75-.53.73-.89,1.55-1.13,2.43,6.03.48,12.11-.39,18.16-.39,11.78-.01,21.11-.03,29.03-.2,10.69-.21,18.8-.69,26.93-1.76,10.64-1.41,8.04-1.86,15.53-2.62,26.32-2.67,47.37,4.01,49.73-1.74.9-2.21-1.62-4.61.1-7.13,1.84-2.68,5.83-1.54,7.3-4.43.76-1.5.58-3.59-.43-4.59Zm-352.6,43.95c-.52,4.75-6.1,8.05-12.48,7.36-6.37-.69-11.12-5.11-10.6-9.87.08-.73.28-1.43.58-2.09l2.32.27,4.68.54,15.41,1.79c.13.65.16,1.32.09,2Z"/>
    <path class="cls-1" d="m174.65,450.54c0,10.99,3.52,20.17,8.23,22.42-.73.35-1.48.54-2.26.54-5.79,0-10.48-10.28-10.48-22.96h4.51Z"/>
  </g>
  <path class="cls-15" d="m171.84,473.9c-1.71-.5-3.53-1.25-4.29-.43-.47.5-.08,1.05-.25,2.72-.24,2.37-1.34,4.36-1.61,4.84-.55.98-.92,1.34-1.08,2.25-.13.69-.03,1.09-.27,1.97-.08.3-.17.55-.61,1.46-.71,1.49-1.06,2.24-1.47,2.84-.66.98-.76.76-1.51,1.81-.9,1.24-1.37,2.38-1.53,2.79-.61,1.54-.33,1.79-.97,3.03-.26.5-.65,1.25-1.47,1.96-.69.6-1.4.91-1.86,1.08-1.7.4-3.93.82-6.55,1.08-1.64.16-3.71.35-6.46.2,0,0-4.52-.34-8.66-1.57-.37-.11-.72-.23-1.12-.39-3.67-1.41-5.67-3.09-7.24-4.11-9.88-6.43-21.53,2.12-25.08-3.49-2.63-4.16-.01-7.56,3.22-23.68,3.3-16.45,2.08-20.42,6-23.11,6.53-4.47,13.59,3.49,22.19,1.29,4.74-1.21,2.62-3.7,15.18-13.42,5.46-4.22,6.81-4.49,9.78-7.83,3.88-4.35,4.67-7.37,7.31-7.56,2.87-.21,6.1,3.05,6.62,6.32.31,1.96-.36,3.7-2.19,6.71-5.8,9.56-11.29,12.26-10.37,15.46.15.51,1.84,1.68,5.21,3.98,2.74,1.87,5.59,3.86,7.61,5.34,5.15,3.75,4.48,4.06,7.52,5.94,4.42,2.74,6.11,2.4,7.04,4.37,1.25,2.63-.04,6.84-2.61,8.41-3.09,1.88-8.59.29-10.5-.26Z"/>
  <path class="cls-16" d="m99.05,404.8c-41.75,36.22-44.73,64.5-63.42,63.42-17.91-1.04-33.9-28.1-35.5-51.2-2.18-31.42,22.38-53.52,39.56-68.97,17.37-15.63,36.57-32.9,61.19-29,23.2,3.68,45.56,25.27,43.97,43.79-1.29,15.1-17.57,17.47-45.81,41.97Z"/>
  <path class="cls-16" d="m128.77,453.17c-5.96,21.28-9.4,25.1-11.41,37.33-.59,3.59-.45,4.21-1.28,5.29-5.33,7.01-25.42-.08-46.24-7.62-17.95-6.5-27.18-9.86-37.41-17.68-12.43-9.49-22.5-17.18-22.81-29.13-.38-14.2,13.16-28.7,26.44-30.94,10.44-1.77,12.01,5.51,37.77,15.15,10.59,3.96,16.18,4.92,23.98,7.85,6.24,2.34,5.83,2.9,9.88,4.29,12.5,4.28,19.76,2.55,22.1,6.88.8,1.49.58,2.88-1.02,8.59Z"/>
  <g class="cls-5">
    <path d="m182.63,466.6c-.63,1.05-1.24,2.11-1.85,3.17-.55.98-1.05,1.94-2.13,2.41-.07.03,0,.13.06.1.89-.38,1.36-1.02,1.84-1.85.72-1.26,1.44-2.53,2.19-3.78.04-.07-.06-.13-.1-.06h0Z"/>
  </g>
  <g class="cls-5">
    <path d="m154.54,428.27c.93.57,1.87,1.14,2.82,1.69.84.49,1.71.92,2.12,1.86.03.07.13,0,.1-.06-.33-.76-.92-1.17-1.62-1.59-1.12-.66-2.25-1.32-3.36-2-.07-.04-.13.06-.06.1h0Z"/>
  </g>
  <g class="cls-5">
    <path d="m152.58,446c1.49-.61,2.98-.48,4.44.15.07.03.13-.07.06-.1-1.5-.64-3.01-.78-4.53-.16-.07.03-.04.14.03.12h0Z"/>
  </g>
  <g class="cls-5">
    <path d="m107.49,135.37c12.38-2.41,24.85-.88,36.27,4.46.07.03.13-.07.06-.1-11.46-5.36-23.95-6.9-36.37-4.47-.08.01-.04.13.03.12h0Z"/>
  </g>
  <g class="cls-5">
    <path d="m99.36,220.7c.25-9.12-3.6-18.03-10.86-23.7-3.47-2.71-7.56-4.31-11.62-5.88-6.73-2.61-13.06-5.66-19.14-9.55-.07-.04-.13.06-.06.1,4.33,2.76,8.81,5.23,13.53,7.29,4.4,1.92,9.08,3.29,13.31,5.59,9.53,5.18,15.02,15.41,14.73,26.15,0,.08.12.08.12,0h0Z"/>
  </g>
  <g class="cls-11">
    <path d="m240.73,240.1c6.56-4.1,11.83-9.69,15.54-16.49.04-.07-.07-.13-.1-.06-3.7,6.78-8.95,12.35-15.5,16.44-.07.04,0,.14.06.1h0Z"/>
  </g>
  <g class="cls-11">
    <path d="m117.57,236.34c-3.65-2.64-6.63-5.95-8.89-9.84-.04-.07-.14,0-.1.06,2.27,3.91,5.27,7.23,8.94,9.89.06.05.12-.06.06-.1h0Z"/>
  </g>
  <g class="cls-5">
    <path d="m185.84,291.53c13.94-6.13,27.04-24.19,18.14-39.32-.04-.07-.14,0-.1.06,8.89,15.11-4.23,33.05-18.1,39.15-.07.03,0,.13.06.1h0Z"/>
  </g>
  <g class="cls-5">
    <path d="m114.44,451.4c-5.81,9.74-10.18,20.08-13.12,31.04-.02.07.1.11.12.03,2.93-10.93,7.31-21.29,13.1-31.01.04-.07-.06-.13-.1-.06h0Z"/>
  </g>
  <g class="cls-5">
    <path d="m64.05,425.9c-9.01-.4-17.93-.59-26.47,2.7-.07.03-.04.14.03.12,8.52-3.29,17.46-3.1,26.44-2.7.08,0,.08-.12,0-.12h0Z"/>
  </g>
  <g class="cls-11">
    <path d="m168.1,425.54c-.24.68-1.37,1.23-2.06,1.24s-1.37-.23-2.03-.49c-.85-.34-1.83-.82-2.53-1.42-.61-.52-1.25-2.01-1.06-2.85.07-.32.47-.74.65-1.03.54-.86,1.08-1.71,1.63-2.57.04-.07-.06-.13-.1-.06-.6.94-1.19,1.88-1.79,2.82-.3.48-.81,1.07-.92,1.65-.23,1.23,1.17,1.9,2.02,2.45,1.48.96,5.36,2.96,6.3.27.03-.07-.09-.1-.12-.03h0Z"/>
  </g>
  <path class="cls-1" d="m400.22,443.67c-.23.25-.45.5-.64.77-.54.75-.91,1.58-1.15,2.48-.03-.01-.06-.01-.09-.01-4.55-.38-8.64-1.07-12.99.02.68-.63,1.24-1.03,1.33-1.1,2.22-1.58,4.47-1.99,5.63-2.19,4.49-.75,6.41.94,7.92.03Z"/>
  <path class="cls-15" d="m447.2,442.55c-.2,1.41-.74,2.63-1.55,3.78-1.42,2.04-3.69,3.87-6.53,6.14-1.96,1.58-4.92,3.92-9.4,5.52-1.17.42-7.62,2.72-12.92,2.18-.21-.02-2.48-.26-5.24.38-1.41.33-2.05.68-2.52,1.04-1.54,1.19-1.51,2.71-2.1,3.42-2.83,3.41-25.15-5.76-24.17-13.5.23-1.81,1.74-3.52,2.88-4.58,4.26-1.07,8.26-.39,12.72-.02.03,0,.06,0,.09.01.24-.88.6-1.7,1.13-2.43.19-.26.4-.51.63-.75.09-.05.17-.11.25-.18.23-.2.43-.44.58-.73,1.08-1.93.51-5.63-.74-8.19-1.59-3.24-3.94-4.01-4.13-7.11-.04-.6-.15-2.44,1-3.16.89-.56,2.02-.17,2.37-.03-.31-.57-.73-1.54-.54-2.48.27-1.33,1.62-2.07,1.96-2.25,1.27-.7,2.79-.71,3.99-.23.91.37,1.19.84,2.97,2.85,3.12,3.52,3.62,3.59,3.83,3.49.67-.32-.48-2.73.75-3.99.63-.63,1.55-.66,2.32-.67,2.01-.04,3.49.79,5.12,1.66,6.38,3.44,5.67,2.63,7.94,4.15,2.32,1.56,3.54,2.74,4.09,2.35.53-.39-.32-1.76-.12-4.49.1-1.39.2-2.53,1.05-3.24,1.16-.97,2.93-.47,3.27-.38,1.7.51,2.64,1.9,3.84,3.84,2.19,3.58,3.29,5.37,4.21,7.56,2.19,5.26,3.28,7.89,2.97,10.04Z"/>
  <g class="cls-11">
    <path d="m410.93,442.42c.82-3.32-.5-6.98-2.3-9.81-.72-1.13-1.61-1.94-2.77-2.59-2.48-1.39-4.38-2.4-5.86-5.12-.04-.07-.14,0-.1.06,1.25,2.32,2.81,3.59,5.1,4.8,4.17,2.2,6.98,7.93,5.82,12.63-.02.07.1.11.12.03h0Z"/>
  </g>
  <g class="cls-11">
    <path d="m411.43,425.7c3.48,3.03,9.35,6.56,9.94,11.56.46,3.89-.16,8.16-.01,12.1,0,.08.12.08.12,0-.11-2.88-.16-5.76-.1-8.64.04-1.92.62-4.39-.2-6.25-1.5-3.39-6.94-6.48-9.66-8.85-.06-.05-.14.03-.08.08h0Z"/>
  </g>
  <g class="cls-11">
    <path d="m400.39,420.86c.42,3.48,5.65,5.19,8.09,2.64.05-.06-.03-.14-.08-.08-2.35,2.46-7.48.82-7.88-2.56,0-.08-.13-.08-.12,0h0Z"/>
  </g>
  <g class="cls-11">
    <path d="m396.73,425.92c.41,1.06,1.18,1.88,2.24,2.31.87.36,2.3.58,2.97-.25.05-.06-.04-.15-.08-.08-.68.85-2.13.55-2.97.16-.96-.44-1.66-1.18-2.03-2.17-.03-.07-.14-.04-.12.03h0Z"/>
  </g>
  <g class="cls-11">
    <path d="m412.32,423.65c1.52,1.56,7.54,3.47,8.08.08.01-.08-.1-.11-.12-.03-.32,2.04-3.09,1.75-4.6,1.48-1.26-.23-2.38-.68-3.29-1.61-.05-.06-.14.03-.08.08h0Z"/>
  </g>
  <g class="cls-11">
    <path d="m471.7,613.52c4.68,3.57,4.07,11.9,2.89,17.08-.02.08.1.11.12.03,1.22-5.38,1.97-13.46-2.95-17.21-.06-.05-.12.06-.06.1h0Z"/>
  </g>
  <g class="cls-11">
    <path d="m485.41,624.08c-1.53.7-3.15.95-4.82.76-.08,0-.08.11,0,.12,1.7.2,3.33-.06,4.88-.77.07-.03,0-.14-.06-.1h0Z"/>
  </g>
  <g class="cls-11">
    <path d="m486.54,627.08c-2.25.58-4.52.75-6.82.52-.08,0-.08.11,0,.12,2.33.23,4.59.05,6.86-.53.07-.02.04-.14-.03-.12h0Z"/>
  </g>
  <g class="cls-11">
    <path d="m430.87,432.37c-2.06,1.14-4.22,1.94-6.53,2.42-.08.02-.04.13.03.12,2.31-.47,4.49-1.28,6.56-2.43.07-.04,0-.14-.06-.1h0Z"/>
  </g>
  <g class="cls-11">
    <path d="m432.03,434.43c-1.35,1.99-4.45,2.53-6.68,2.59-.08,0-.08.12,0,.12,2.29-.06,5.4-.61,6.78-2.65.04-.06-.06-.12-.1-.06h0Z"/>
  </g>
  <g class="cls-11">
    <path d="m417.79,433.32c-1.29,1.04-3.56.75-5.07.49-.08-.01-.11.1-.03.12,1.59.27,3.84.57,5.19-.52.06-.05-.03-.13-.08-.08h0Z"/>
  </g>
  <g class="cls-11">
    <path d="m419.62,435.51c-1.93,1.15-4.06,1.63-6.3,1.41-.08,0-.08.11,0,.12,2.26.22,4.41-.27,6.36-1.43.07-.04,0-.14-.06-.1h0Z"/>
  </g>
  <g class="cls-11">
    <path d="m406.49,435.01c-.79.48-1.68.61-2.57.39-.07-.02-.11.1-.03.12.92.23,1.85.09,2.66-.4.07-.04,0-.14-.06-.1h0Z"/>
  </g>
  <g class="cls-11">
    <path d="m407.57,436.49c-.64.72-1.6,1.01-2.53.76-.07-.02-.11.1-.03.12.97.26,1.98-.04,2.65-.79.05-.06-.03-.14-.08-.08h0Z"/>
  </g>
  <g class="cls-11">
    <path d="m474.19,610.44c.59,1.34,1.97,1.63,3.32,1.49,1.06-.11,2.47-.26,2.99-1.34.03-.07-.07-.13-.1-.06-.47.99-1.72,1.13-2.69,1.25-1.34.17-2.79.02-3.41-1.4-.03-.07-.13,0-.1.06h0Z"/>
  </g>
  <g class="cls-11">
    <path d="m410.92,460.59c-3.58.12-6.97-.61-10.19-2.18-.07-.03-.13.07-.06.1,3.23,1.58,6.66,2.31,10.25,2.19.08,0,.08-.12,0-.12h0Z"/>
  </g>
  <g class="cls-5">
    <path d="m377.68,454.97c.7,7.97,10.24,9.23,15.54,13.18.06.05.12-.06.06-.1-5.26-3.92-14.78-5.15-15.48-13.07,0-.08-.13-.08-.12,0h0Z"/>
  </g>
  <g class="cls-11">
    <path d="m400.34,443.79c.63-.8,1.41-1.42,2.32-1.87.07-.03,0-.14-.06-.1-.92.45-1.71,1.08-2.35,1.88-.05.06.04.15.08.08h0Z"/>
  </g>
  <g class="cls-11">
    <path d="m398.29,446.87c-.52,2.51-2.66,3.89-3.69,6.11-.03.07.07.13.1.06,1.04-2.25,3.18-3.62,3.7-6.14.02-.08-.1-.11-.12-.03h0Z"/>
  </g>
  <path class="cls-4" d="m293.38,599.46l-219.36-.33c1.41-5.12,2.82-10.23,4.23-15.35,69.79-.04,139.57-.08,209.36-.11l5.77,15.79Z"/>
  <g class="cls-11">
    <path d="m272.46,749c6.55-10.66,10.8-20.54,11.84-33.11,1.19-14.41.75-28.89-1.02-43.23,0-.08-.13-.08-.12,0,1.61,13.04,2.11,26.18,1.3,39.3-.39,6.33-.9,12.75-2.84,18.82-2.09,6.51-5.7,12.37-9.25,18.16-.04.07.06.13.1.06h0Z"/>
  </g>
  <g class="cls-11">
    <path d="m238.55,732.15c1.2-14.24-4.76-28.26-5.97-42.38-1.31-15.26.14-30.57,4.04-45.37.02-.07-.1-.11-.12-.03-3.74,14.21-5.23,28.87-4.19,43.54.49,6.82,1.55,13.56,3.05,20.24,1.79,7.95,3.76,15.79,3.07,24.01,0,.08.11.08.12,0h0Z"/>
  </g>
  <g class="cls-11">
    <path d="m134.72,740.99c13.35-24.5,16.94-52.9,21.98-79.96.01-.08-.1-.11-.12-.03-5.04,27.05-8.62,55.44-21.97,79.93-.04.07.07.13.1.06h0Z"/>
  </g>
  <g class="cls-11">
    <path d="m100.14,735.3c.28-10.75-4.39-20.57-6.8-30.86-2.86-12.2-3.53-24.74-2.3-37.2,0-.08-.11-.08-.12,0-1.11,11.22-.69,22.5,1.51,33.57s7.9,22.57,7.58,34.49c0,.08.12.08.12,0h0Z"/>
  </g>
  <g class="cls-5">
    <path d="m185.58,725.4c.36-2.74.53-5.49.53-8.25,0-.08-.12-.08-.12,0,0,2.76-.17,5.51-.53,8.25,0,.08.11.08.12,0h0Z"/>
  </g>
  <g class="cls-5">
    <path d="m47.4,646.82c.08,0,.08-.12,0-.12s-.08.12,0,.12h0Z"/>
  </g>
  <g class="cls-5">
    <path d="m76.7,607.99c-1.84,11.24-3.49,26.17-13.64,33.24-.06.04,0,.15.06.1,10.2-7.11,11.86-22.08,13.7-33.32.01-.08-.1-.11-.12-.03h0Z"/>
  </g>
  <path class="cls-6" d="m293.24,905.29c-5.36.57-13.2,1.19-22.7,1.17-14.17-.03-13.21-1.45-25.08-1.39-16.59.07-24.22,2.87-32.44-2.52-2.67-1.75-4.46-3.75-5.48-5.03-5.56-12.77-5.3-22.22-3.92-28.62,2.04-9.46,6.72-13.09,8.25-24,1.34-9.55-.84-16.81-1.99-21.39-2.82-11.21-5.15-28.76-2.35-55.9,10.18,3.21,25.3,6.72,43.82,6.6,17.63-.11,32.08-3.47,42.01-6.6,1.57,11.58.42,20.5-.97,26.57-2.6,11.4-7.3,18.46-5.3,29.85.65,3.71,1.28,7.32,4.17,10.43,5.45,5.87,12.21,2.76,22.96,6.78,2,.75,11.89,4.65,18.78,14.61,7.04,10.19,6.89,20.84,6.78,24.52-.13,4.43-.57,20.03-9.91,25.04-2.89,1.55-4.87,1.14-18.26.52-7.87-.37-14.27-.55-18.39-.65Z"/>
  <path class="cls-7" d="m341.77,906.42c-46.4-.11-92.8-.22-139.21-.33-.17-.04-.47-.13-.75-.36-.51-.41-.62-.98-.65-1.14-1.33-3.16-4.9-12.6-.65-17.45.2-.23.42-.45.65-.65h141.39c.36,0,.65.29.65.65.74,1.74,1.79,4.83,1.7,8.78-.09,3.96-1.29,6.89-1.77,7.95-.48,1.07-.98,1.93-1.37,2.54Z"/>
  <path class="cls-14" d="m290.13,802.26c-.29.87-.68,2.07-1.12,3.51-.5,1.64-.8,2.61-1.12,3.85-.33,1.29-.74,2.85-1,4.79-.18,1.37-.34,3.24-.23,5.49-15.48.05-30.96.1-46.44.14v-17.89c16.63.03,33.27.07,49.91.11Z"/>
  <path d="m240.22,802.15v17.89c-2.82.02-5.65.03-8.48.03-7.62,0-15.19-.03-22.7-.11-.26-1.31-.46-2.44-.62-3.34-.36-2.04-.55-3.28-.6-3.62-.03-.19-.07-.47-.12-.85-.28-2-.48-3.71-.55-4.37,0-.01,0-.09-.02-.18-.13-1.26-.3-3-.47-5.31,8.72-.11,17.5-.16,26.35-.16,2.41,0,4.81,0,7.21.02Z"/>
  <path class="cls-14" d="m221.96,802.13c-4.61,0-8.35,4.01-8.35,8.96s3.74,8.96,8.35,8.96"/>
  <path class="cls-2" d="m240.22,802.13v17.94h-16.63v-17.94h16.63Z"/>
  <rect class="cls-14" x="221.96" y="802.13" width="1.63" height="17.94"/>
  <path class="cls-8" d="m239.84,886.2c.18.09,1.2.12,3.24.19,2.85.1,4.52.1,4.52.1,11.03,0,31.2-.1,41.75-.03,14.12.09,32.56.63,39.21.27,1.29-.07,3.48-.25,6.78-.24,4.6,0,4.98.36,5.72,0,3.96-1.93,2.51-16.49-5.12-27.99-2.6-3.92-8.07-10.75-17.78-15.45-8.91-4.31-16.95-4.68-21.39-4.84-4.1-.15-30.94-.71-46.85,17.14-11.2,12.56-12.79,29.55-10.09,30.85Z"/>
  <g class="cls-5">
    <path d="m220.05,765.83c-5.59-3.95-9.44-9.58-11.09-16.22-.02-.07-.13-.04-.12.03,1.66,6.68,5.52,12.32,11.14,16.29.06.04.12-.06.06-.1h0Z"/>
  </g>
  <g class="cls-5">
    <path d="m289.04,768.73c3.88-7.45,7.23-15.11,10.06-23.02.03-.07-.09-.1-.12-.03-2.83,7.9-6.17,15.55-10.05,22.99-.04.07.07.13.1.06h0Z"/>
  </g>
  <g class="cls-11">
    <path d="m297.47,845.26c-16.5,2.49-34.68,6.05-43.98,21.48-1,1.66,1.59,3.17,2.59,1.51,8.87-14.7,26.56-17.74,42.19-20.1,1.9-.29,1.09-3.18-.8-2.89h0Z"/>
  </g>
  <g class="cls-11">
    <path d="m209.67,882.55c-.31-6.6-.55-13.63,3.98-18.98,1.24-1.46-.87-3.6-2.12-2.12-5.12,6.03-5.22,13.54-4.86,21.1.09,1.92,3.09,1.93,3,0h0Z"/>
  </g>
  <g class="cls-11">
    <path d="m218.43,782.26c16.21,2.83,32.6,3.55,49,2.08,1.91-.17,1.93-3.17,0-3-16.12,1.45-32.25.81-48.2-1.97-1.89-.33-2.7,2.56-.8,2.89h0Z"/>
  </g>
  <path class="cls-6" d="m75.02,904.35c5.32.57,13.1,1.19,22.52,1.17,14.06-.03,13.11-1.45,24.89-1.39,16.46.07,24.03,2.87,32.18-2.52,2.65-1.75,4.42-3.75,5.43-5.03,5.51-12.77,5.26-22.22,3.88-28.62-2.03-9.46-6.67-13.09-8.18-24-1.33-9.55.83-16.81,1.97-21.39,2.8-11.21,5.11-28.76,2.33-55.9-10.1,3.21-25.1,6.72-43.48,6.6-17.49-.11-31.83-3.47-41.68-6.6-1.56,11.58-.42,20.5.96,26.57,2.58,11.4,7.25,18.46,5.26,29.85-.65,3.71-1.27,7.32-4.14,10.43-5.4,5.87-12.11,2.76-22.78,6.78-1.99.75-11.8,4.65-18.64,14.61-6.99,10.19-6.83,20.84-6.73,24.52.13,4.43.57,20.03,9.84,25.04,2.87,1.55,4.84,1.14,18.12.52,7.81-.37,14.15-.55,18.25-.65Z"/>
  <path class="cls-7" d="m26.88,905.47c46.04-.11,92.08-.22,138.11-.33.17-.04.46-.13.74-.36.5-.41.62-.98.65-1.14,1.31-3.16,4.86-12.6.65-17.45-.2-.23-.41-.45-.65-.65H26.11c-.36,0-.65.29-.65.65-.74,1.74-1.78,4.83-1.69,8.78.09,3.96,1.28,6.89,1.75,7.95.48,1.07.97,1.93,1.36,2.54Z"/>
  <path class="cls-14" d="m78.11,801.31c.29.87.67,2.07,1.11,3.51.5,1.64.79,2.61,1.11,3.85.33,1.29.73,2.85.99,4.79.18,1.37.34,3.24.23,5.49,15.36.05,30.72.1,46.08.14v-17.89c-16.5.03-33.01.07-49.52.11Z"/>
  <path d="m127.63,801.2v17.89c2.8.02,5.6.03,8.41.03,7.56,0,15.07-.03,22.52-.11.26-1.31.46-2.44.62-3.34.36-2.04.55-3.28.6-3.62.03-.19.07-.47.12-.85.28-2,.47-3.71.54-4.37,0-.01,0-.09.02-.18.13-1.26.3-3,.47-5.31-8.65-.11-17.36-.16-26.14-.16-2.39,0-4.77,0-7.15.02Z"/>
  <path class="cls-14" d="m145.75,801.18c4.57,0,8.28,4.01,8.28,8.96,0,4.95-3.71,8.96-8.28,8.96"/>
  <path class="cls-2" d="m127.63,801.18v.02s0,17.92,0,17.92h16.5s0-17.94,0-17.94h-16.5Z"/>
  <rect class="cls-14" x="144.13" y="801.18" width="1.62" height="17.94" transform="translate(289.88 1620.31) rotate(-180)"/>
  <path class="cls-8" d="m128.01,885.26c-.18.09-1.19.12-3.21.19-2.83.1-4.49.1-4.49.1-10.94,0-30.96-.1-41.43-.03-14.01.09-32.3.63-38.91.27-1.28-.07-3.45-.25-6.73-.24-4.57,0-4.94.36-5.67,0-3.93-1.93-2.49-16.49,5.08-27.99,2.58-3.92,8.01-10.75,17.64-15.45,8.84-4.31,16.81-4.68,21.22-4.84,4.07-.15,30.7-.71,46.48,17.14,11.11,12.56,12.69,29.55,10.01,30.85Z"/>
  <g class="cls-11">
    <path d="m70.03,847.21c15.55,2.37,33.07,5.44,41.85,20.1.99,1.66,3.59.15,2.59-1.51-9.21-15.39-27.23-18.98-43.64-21.48-1.89-.29-2.7,2.6-.8,2.89h0Z"/>
  </g>
  <g class="cls-11">
    <path d="m160.93,881.61c.35-7.55.27-15.05-4.83-21.1-1.25-1.48-3.36.65-2.12,2.12,4.51,5.35,4.26,12.38,3.95,18.98-.09,1.93,2.91,1.93,3,0h0Z"/>
  </g>
  <g class="cls-11">
    <path d="m148.46,778.42c-15.82,2.78-31.82,3.42-47.82,1.97-1.92-.17-1.91,2.83,0,3,16.27,1.47,32.53.75,48.62-2.08,1.9-.33,1.09-3.23-.8-2.89h0Z"/>
  </g>
  <g class="cls-5">
    <path d="m149.21,769.03c5.05-5.48,7.88-12.22,8.27-19.66,0-.08-.12-.08-.12,0-.38,7.42-3.19,14.11-8.23,19.58-.05.06.03.14.08.08h0Z"/>
  </g>
  <g class="cls-5">
    <path d="m83.83,767c-3.78-6.63-6.02-13.7-6.75-21.29,0-.08-.13-.08-.12,0,.73,7.59,2.99,14.73,6.76,21.35.04.07.14,0,.1-.06h0Z"/>
  </g>
  <g class="cls-5">
    <path d="m135.5,327.4c1.27,3.07,3.82,4.41,6.95,5.27,5.84,1.6,12.35,1.84,18.34,2.28,14.66,1.08,29.36.62,43.94-1.19.08,0,.08-.13,0-.12-11.41,1.42-22.89,2.03-34.38,1.69-5.42-.16-10.84-.53-16.23-1.09-5.71-.6-15.82-.36-18.51-6.86-.03-.07-.15-.04-.12.03h0Z"/>
  </g>
  <g class="cls-5">
    <path d="m155.15,499.11c1.17-1.19,1.85-2.68,1.98-4.34,0-.08-.11-.08-.12,0-.13,1.63-.79,3.09-1.94,4.26-.05.06.03.14.08.08h0Z"/>
  </g>
  <g class="cls-5">
    <path d="m160.65,488.95c.98-1.17,1.69-2.49,2.11-3.96.02-.07-.09-.11-.12-.03-.42,1.45-1.11,2.75-2.08,3.91-.05.06.04.14.08.08h0Z"/>
  </g>
  <g class="cls-5">
    <path d="m165.37,479.45c.55-1.19.88-2.45.99-3.76,0-.08-.11-.08-.12,0-.1,1.29-.43,2.52-.97,3.7-.03.07.07.13.1.06h0Z"/>
  </g>
  <path class="cls-10" d="m59.74,95.57c1.43-23.15,4.66-54.91,31.17-62.85,3.69-1.1,2.12-6.9-1.6-5.79-29.48,8.82-33.96,42.52-35.58,68.64-.24,3.86,5.76,3.84,6,0h0Z"/>
  <g class="cls-11">
    <path d="m81.73,583.69c1.47-9.04-3.64-18.1-6.8-26.32-.03-.07-.14-.04-.12.03,3.13,8.13,8.25,17.31,6.8,26.25-.01.08.1.11.12.03h0Z"/>
  </g>
  <g class="cls-11">
    <path d="m282.53,583.18c1.44-7.41,4.39-14.18,8.83-20.28.05-.06-.06-.12-.1-.06-4.45,6.11-7.4,12.88-8.85,20.31-.01.08.1.11.12.03h0Z"/>
  </g>
  <g class="cls-11">
    <path d="m76.5,121.86c6.57-5.65,13.09-10.25,21.69-12.21,7.86-1.8,16-1.76,24.01-1.71.08,0,.08-.12,0-.12-8.58-.06-17.34-.12-25.69,2.12-7.87,2.1-14.02,6.6-20.1,11.84-.06.05.03.14.08.08h0Z"/>
  </g>
  <g class="cls-11">
    <path d="m237.12,44.7c-30.45-15.31-63.97-23.49-98.06-23.92-.08,0-.08.12,0,.12,34.07.43,67.56,8.6,98,23.9.07.03.13-.07.06-.1h0Z"/>
  </g>
</svg>